<svg width="19" height="17" viewBox="0 0 19 17" fill="none" xmlns="http://www.w3.org/2000/svg">
<path fill-rule="evenodd" clip-rule="evenodd" d="M16.2847 8.64477C16.9918 7.92656 17.3846 6.95689 17.3767 5.94907C17.3688 4.94125 16.9609 3.97783 16.2427 3.27077C15.8871 2.92066 15.466 2.64403 15.0034 2.45667C14.5409 2.2693 14.046 2.17487 13.547 2.17877C12.5392 2.18665 11.5758 2.59456 10.8687 3.31277C10.6767 3.50477 10.4327 3.74043 10.1367 4.01977L9.31369 4.79477L8.49069 4.01977C8.19402 3.73977 7.94969 3.5041 7.75769 3.31277C7.04505 2.60013 6.07851 2.19978 5.07069 2.19978C4.06287 2.19978 3.09633 2.60013 2.38369 3.31277C0.915689 4.78177 0.898689 7.15677 2.32969 8.63277L9.31369 15.6168L16.2847 8.64477ZM1.53469 2.46477C1.999 2.00033 2.55025 1.63192 3.15697 1.38056C3.76368 1.12921 4.41397 0.999834 5.07069 0.999834C5.72741 0.999834 6.3777 1.12921 6.98441 1.38056C7.59113 1.63192 8.14238 2.00033 8.60669 2.46477C8.78869 2.64743 9.02436 2.87477 9.31369 3.14677C9.60169 2.87477 9.83736 2.6471 10.0207 2.46377C10.9512 1.51893 12.2189 0.982441 13.545 0.972314C14.8711 0.962187 16.1469 1.47925 17.0917 2.40977C18.0365 3.34028 18.573 4.60801 18.5831 5.93408C18.5933 7.26015 18.0762 8.53593 17.1457 9.48077L10.0207 16.6068C9.83316 16.7942 9.57885 16.8996 9.31369 16.8996C9.04852 16.8996 8.79422 16.7942 8.60669 16.6068L1.47969 9.47977C0.565729 8.53717 0.0591991 7.2729 0.0694897 5.96C0.0797804 4.6471 0.606066 3.39092 1.53469 2.46277V2.46477Z" fill="#444444"/>
</svg>
