<svg width="16" height="15" viewBox="0 0 16 15" fill="none" xmlns="http://www.w3.org/2000/svg">
<path d="M8.03059 0.00292969C3.93559 0.00292969 0.598086 3.34043 0.598086 7.43543C0.598086 8.74793 0.943086 10.0229 1.58809 11.1479L0.538086 15.0029L4.47559 13.9679C5.56309 14.5604 6.78559 14.8754 8.03059 14.8754C12.1256 14.8754 15.4631 11.5379 15.4631 7.44293C15.4631 5.45543 14.6906 3.58793 13.2881 2.18543C11.8856 0.77543 10.0181 0.00292969 8.03059 0.00292969ZM8.03809 1.25543C9.68809 1.25543 11.2331 1.90043 12.4031 3.07043C13.5656 4.24043 14.2106 5.79293 14.2106 7.44293C14.2106 10.8479 11.4356 13.6154 8.03059 13.6154C6.92059 13.6154 5.83309 13.3229 4.88809 12.7529L4.66309 12.6254L2.32309 13.2404L2.94559 10.9604L2.79559 10.7204C2.18059 9.75293 1.85059 8.60543 1.85059 7.43543C1.85809 4.03043 4.62559 1.25543 8.03809 1.25543ZM5.39809 4.00043C5.27809 4.00043 5.07559 4.04543 4.90309 4.23293C4.73809 4.42043 4.25059 4.87793 4.25059 5.78543C4.25059 6.70043 4.91809 7.57793 5.00059 7.70543C5.10559 7.83293 6.32059 9.70793 8.18809 10.5029C8.63059 10.7054 8.97559 10.8179 9.24559 10.9004C9.68809 11.0429 10.0931 11.0204 10.4156 10.9754C10.7756 10.9229 11.5106 10.5254 11.6681 10.0904C11.8256 9.65543 11.8256 9.28793 11.7806 9.20543C11.7281 9.13043 11.6081 9.08543 11.4206 9.00293C11.2331 8.89793 10.3181 8.44793 10.1531 8.38793C9.98059 8.32793 9.87559 8.29793 9.73309 8.47793C9.61309 8.66543 9.25309 9.08543 9.14809 9.20543C9.03559 9.33293 8.93059 9.34793 8.75059 9.25793C8.55559 9.16043 7.95559 8.96543 7.25059 8.33543C6.69559 7.84043 6.32809 7.23293 6.21559 7.04543C6.12559 6.86543 6.20809 6.75293 6.29809 6.67043C6.38059 6.58793 6.50059 6.45293 6.57559 6.34043C6.67309 6.23543 6.70309 6.15293 6.76309 6.03293C6.82309 5.90543 6.79309 5.80043 6.74809 5.71043C6.70309 5.62793 6.32809 4.69793 6.17059 4.33043C6.02059 3.97043 5.87059 4.01543 5.75059 4.00793C5.64559 4.00793 5.52559 4.00043 5.39809 4.00043Z" fill="white"/>
</svg>
